<?xml version="1.0" encoding="UTF-8"?>
<svg version="1.1" viewBox="0 0 320 320" xml:space="preserve" xmlns="http://www.w3.org/2000/svg" xmlns:cc="http://creativecommons.org/ns#" xmlns:dc="http://purl.org/dc/elements/1.1/" xmlns:rdf="http://www.w3.org/1999/02/22-rdf-syntax-ns#"><metadata><rdf:RDF><cc:Work rdf:about=""><dc:format>image/svg+xml</dc:format><dc:type rdf:resource="http://purl.org/dc/dcmitype/StillImage"/><dc:title/></cc:Work></rdf:RDF></metadata><style type="text/css">
	.st0{display:none;}
	.st1{display:inline;}
	.st2{fill:#FFFFFF;}
	.st3{font-family:'Dosis-ExtraBold';}
	.st4{font-size:199.3566px;}
	.st5{letter-spacing:9;}
	.st6{display:inline;fill:#FA004F;}
	.st7{fill:#FA004F;}
</style><g class="st0" transform="translate(0,-182.1)" display="none"><rect class="st1" width="2091.7" height="500"/><g class="st1"><ellipse class="st2" cx="237.7" cy="248.8" rx="158.9" ry="157.4" d="m 396.59999,248.8 c 0,86.92962 -71.14195,157.4 -158.89999,157.4 -87.75805,0 -158.899997,-70.47038 -158.899997,-157.4 0,-86.92961 71.141947,-157.399991 158.899997,-157.399991 87.75804,0 158.89999,70.470381 158.89999,157.399991 z" fill="#FFF"/><path d="m243.4 193.6s-0.8-16.5 17.5-17.5c20.3-1.1 63 19.7 58.6 79.3-4.3 57.6-12 66.4-12 66.4s2 7.9 4 14.4c0.8 2.7 3.6 12.1-3.3 13.6-7.1 1.6-17.3-0.1-25.8 0.4-4.6 0.3-6.3-2.9-6.7-6.7 0 0-2.4-13.6-2.6-13.5-3.1 1.4-16.5 3.4-26 3.1-10.2-0.3-27.4-2.9-27.4-2.9v14c0 2.2-1.7 5.7-5.9 5.9-2.3 0.1-25.9 0.1-27.9 0-4-0.2-5.8-4.2-5.2-9s1.2-6.8 1.2-6.8 10.9-3.2 7.5-21.1c0 0-25.2 31.9-62.8 33.1 0 0 27.2-20.3 36-51.7 7.9-28.1 41.8-39 58.4-38.4s27.3 5.8 41.1 4c5.6-0.7 24.2-3.2 24.6-24.6 0.3-20.6-21.1-24.6-24.6-24.6-5.6 0.2-19.1-3.4-18.7-17.4z"/><circle cx="257.3" cy="140.2" r="17.2" d="m 274.49999,140.2 c 0,9.4993 -7.7007,17.2 -17.2,17.2 -9.4993,0 -17.2,-7.7007 -17.2,-17.2 0,-9.4993 7.7007,-17.2 17.2,-17.2 9.4993,0 17.2,7.7007 17.2,17.2 z"/><text class="st2 st3 st4 st5" transform="translate(454.36 324.79)" fill="#ffffff" font-family="Dosis-ExtraBold" font-size="199.36px" letter-spacing="9">IMPACTASAURUS</text>

</g><rect class="st6" y="1" width="2091.7" height="500" fill="#fa004f"/><g class="st1"><ellipse class="st2" cx="237.7" cy="248.8" rx="158.9" ry="157.4" d="m 396.59999,248.8 c 0,86.92962 -71.14195,157.4 -158.89999,157.4 -87.75805,0 -158.899997,-70.47038 -158.899997,-157.4 0,-86.92961 71.141947,-157.399991 158.899997,-157.399991 87.75804,0 158.89999,70.470381 158.89999,157.399991 z" fill="#FFF"/><path class="st7" d="m243.4 193.6s-0.8-16.5 17.5-17.5c20.3-1.1 63 19.7 58.6 79.3-4.3 57.6-12 66.4-12 66.4s2 7.9 4 14.4c0.8 2.7 3.6 12.1-3.3 13.6-7.1 1.6-17.3-0.1-25.8 0.4-4.6 0.3-6.3-2.9-6.7-6.7 0 0-2.4-13.6-2.6-13.5-3.1 1.4-16.5 3.4-26 3.1-10.2-0.3-27.4-2.9-27.4-2.9v14c0 2.2-1.7 5.7-5.9 5.9-2.3 0.1-25.9 0.1-27.9 0-4-0.2-5.8-4.2-5.2-9s1.2-6.8 1.2-6.8 10.9-3.2 7.5-21.1c0 0-25.2 31.9-62.8 33.1 0 0 27.2-20.3 36-51.7 7.9-28.1 41.8-39 58.4-38.4s27.3 5.8 41.1 4c5.6-0.7 24.2-3.2 24.6-24.6 0.3-20.6-21.1-24.6-24.6-24.6-5.6 0.2-19.1-3.4-18.7-17.4z" fill="#fa004f"/><circle class="st7" cx="257.3" cy="140.2" r="17.2" d="m 274.49999,140.2 c 0,9.4993 -7.7007,17.2 -17.2,17.2 -9.4993,0 -17.2,-7.7007 -17.2,-17.2 0,-9.4993 7.7007,-17.2 17.2,-17.2 9.4993,0 17.2,7.7007 17.2,17.2 z" fill="#fa004f"/><text class="st2 st3 st4 st5" transform="translate(454.36 324.79)" fill="#ffffff" font-family="Dosis-ExtraBold" font-size="199.36px" letter-spacing="9">IMPACTASAURUS</text>

<ellipse cx="237.7" cy="248.8" rx="158.9" ry="157.4" d="m 396.59999,248.8 c 0,86.92962 -71.14195,157.4 -158.89999,157.4 -87.75805,0 -158.899997,-70.47038 -158.899997,-157.4 0,-86.92961 71.141947,-157.399991 158.899997,-157.399991 87.75804,0 158.89999,70.470381 158.89999,157.399991 z"/><path class="st2" d="m243.4 193.6s-0.8-16.5 17.5-17.5c20.3-1.1 63 19.7 58.6 79.3-4.3 57.6-12 66.4-12 66.4s2 7.9 4 14.4c0.8 2.7 3.6 12.1-3.3 13.6-7.1 1.6-17.3-0.1-25.8 0.4-4.6 0.3-6.3-2.9-6.7-6.7 0 0-2.4-13.6-2.6-13.5-3.1 1.4-16.5 3.4-26 3.1-10.2-0.3-27.4-2.9-27.4-2.9v14c0 2.2-1.7 5.7-5.9 5.9-2.3 0.1-25.9 0.1-27.9 0-4-0.2-5.8-4.2-5.2-9s1.2-6.8 1.2-6.8 10.9-3.2 7.5-21.1c0 0-25.2 31.9-62.8 33.1 0 0 27.2-20.3 36-51.7 7.9-28.1 41.8-39 58.4-38.4s27.3 5.8 41.1 4c5.6-0.7 24.2-3.2 24.6-24.6 0.3-20.6-21.1-24.6-24.6-24.6-5.6 0.2-19.1-3.4-18.7-17.4z" fill="#FFF"/><circle class="st2" cx="257.3" cy="140.2" r="17.2" d="m 274.49999,140.2 c 0,9.4993 -7.7007,17.2 -17.2,17.2 -9.4993,0 -17.2,-7.7007 -17.2,-17.2 0,-9.4993 7.7007,-17.2 17.2,-17.2 9.4993,0 17.2,7.7007 17.2,17.2 z" fill="#FFF"/><text class="st3 st4 st5" transform="translate(454.36 324.79)" font-family="Dosis-ExtraBold" font-size="199.36px" letter-spacing="9">IMPACTASAURUS</text>

</g></g><style type="text/css">
	.st0{display:none;}
	.st1{display:inline;}
	.st2{fill:#FFFFFF;}
	.st3{font-family:'Dosis-ExtraBold';}
	.st4{font-size:199.3566px;}
	.st5{letter-spacing:9;}
	.st6{display:inline;fill:#FA004F;}
	.st7{fill:#FA004F;}
</style><g class="st0" transform="translate(-61.375 275.54)" display="none"><rect class="st1" width="2091.7" height="500"/><g class="st1"><ellipse class="st2" cx="237.7" cy="248.8" rx="158.9" ry="157.4" d="m 396.59999,248.8 c 0,86.92962 -71.14195,157.4 -158.89999,157.4 -87.75805,0 -158.899997,-70.47038 -158.899997,-157.4 0,-86.92961 71.141947,-157.399991 158.899997,-157.399991 87.75804,0 158.89999,70.470381 158.89999,157.399991 z" fill="#FFF"/><path d="m243.4 193.6s-0.8-16.5 17.5-17.5c20.3-1.1 63 19.7 58.6 79.3-4.3 57.6-12 66.4-12 66.4s2 7.9 4 14.4c0.8 2.7 3.6 12.1-3.3 13.6-7.1 1.6-17.3-0.1-25.8 0.4-4.6 0.3-6.3-2.9-6.7-6.7 0 0-2.4-13.6-2.6-13.5-3.1 1.4-16.5 3.4-26 3.1-10.2-0.3-27.4-2.9-27.4-2.9v14c0 2.2-1.7 5.7-5.9 5.9-2.3 0.1-25.9 0.1-27.9 0-4-0.2-5.8-4.2-5.2-9s1.2-6.8 1.2-6.8 10.9-3.2 7.5-21.1c0 0-25.2 31.9-62.8 33.1 0 0 27.2-20.3 36-51.7 7.9-28.1 41.8-39 58.4-38.4s27.3 5.8 41.1 4c5.6-0.7 24.2-3.2 24.6-24.6 0.3-20.6-21.1-24.6-24.6-24.6-5.6 0.2-19.1-3.4-18.7-17.4z"/><circle cx="257.3" cy="140.2" r="17.2" d="m 274.49999,140.2 c 0,9.4993 -7.7007,17.2 -17.2,17.2 -9.4993,0 -17.2,-7.7007 -17.2,-17.2 0,-9.4993 7.7007,-17.2 17.2,-17.2 9.4993,0 17.2,7.7007 17.2,17.2 z"/><text class="st2 st3 st4 st5" transform="translate(454.36 324.79)" fill="#ffffff" font-family="Dosis-ExtraBold" font-size="199.36px" letter-spacing="9">IMPACTASAURUS</text>

</g><rect class="st6" y="1" width="2091.7" height="500" fill="#fa004f"/><g class="st1"><ellipse class="st2" cx="237.7" cy="248.8" rx="158.9" ry="157.4" d="m 396.59999,248.8 c 0,86.92962 -71.14195,157.4 -158.89999,157.4 -87.75805,0 -158.899997,-70.47038 -158.899997,-157.4 0,-86.92961 71.141947,-157.399991 158.899997,-157.399991 87.75804,0 158.89999,70.470381 158.89999,157.399991 z" fill="#FFF"/><path class="st7" d="m243.4 193.6s-0.8-16.5 17.5-17.5c20.3-1.1 63 19.7 58.6 79.3-4.3 57.6-12 66.4-12 66.4s2 7.9 4 14.4c0.8 2.7 3.6 12.1-3.3 13.6-7.1 1.6-17.3-0.1-25.8 0.4-4.6 0.3-6.3-2.9-6.7-6.7 0 0-2.4-13.6-2.6-13.5-3.1 1.4-16.5 3.4-26 3.1-10.2-0.3-27.4-2.9-27.4-2.9v14c0 2.2-1.7 5.7-5.9 5.9-2.3 0.1-25.9 0.1-27.9 0-4-0.2-5.8-4.2-5.2-9s1.2-6.8 1.2-6.8 10.9-3.2 7.5-21.1c0 0-25.2 31.9-62.8 33.1 0 0 27.2-20.3 36-51.7 7.9-28.1 41.8-39 58.4-38.4s27.3 5.8 41.1 4c5.6-0.7 24.2-3.2 24.6-24.6 0.3-20.6-21.1-24.6-24.6-24.6-5.6 0.2-19.1-3.4-18.7-17.4z" fill="#fa004f"/><circle class="st7" cx="257.3" cy="140.2" r="17.2" d="m 274.49999,140.2 c 0,9.4993 -7.7007,17.2 -17.2,17.2 -9.4993,0 -17.2,-7.7007 -17.2,-17.2 0,-9.4993 7.7007,-17.2 17.2,-17.2 9.4993,0 17.2,7.7007 17.2,17.2 z" fill="#fa004f"/><text class="st2 st3 st4 st5" transform="translate(454.36 324.79)" fill="#ffffff" font-family="Dosis-ExtraBold" font-size="199.36px" letter-spacing="9">IMPACTASAURUS</text>

<ellipse cx="237.7" cy="248.8" rx="158.9" ry="157.4" d="m 396.59999,248.8 c 0,86.92962 -71.14195,157.4 -158.89999,157.4 -87.75805,0 -158.899997,-70.47038 -158.899997,-157.4 0,-86.92961 71.141947,-157.399991 158.899997,-157.399991 87.75804,0 158.89999,70.470381 158.89999,157.399991 z"/><path class="st2" d="m243.4 193.6s-0.8-16.5 17.5-17.5c20.3-1.1 63 19.7 58.6 79.3-4.3 57.6-12 66.4-12 66.4s2 7.9 4 14.4c0.8 2.7 3.6 12.1-3.3 13.6-7.1 1.6-17.3-0.1-25.8 0.4-4.6 0.3-6.3-2.9-6.7-6.7 0 0-2.4-13.6-2.6-13.5-3.1 1.4-16.5 3.4-26 3.1-10.2-0.3-27.4-2.9-27.4-2.9v14c0 2.2-1.7 5.7-5.9 5.9-2.3 0.1-25.9 0.1-27.9 0-4-0.2-5.8-4.2-5.2-9s1.2-6.8 1.2-6.8 10.9-3.2 7.5-21.1c0 0-25.2 31.9-62.8 33.1 0 0 27.2-20.3 36-51.7 7.9-28.1 41.8-39 58.4-38.4s27.3 5.8 41.1 4c5.6-0.7 24.2-3.2 24.6-24.6 0.3-20.6-21.1-24.6-24.6-24.6-5.6 0.2-19.1-3.4-18.7-17.4z" fill="#FFF"/><circle class="st2" cx="257.3" cy="140.2" r="17.2" d="m 274.49999,140.2 c 0,9.4993 -7.7007,17.2 -17.2,17.2 -9.4993,0 -17.2,-7.7007 -17.2,-17.2 0,-9.4993 7.7007,-17.2 17.2,-17.2 9.4993,0 17.2,7.7007 17.2,17.2 z" fill="#FFF"/><text class="st3 st4 st5" transform="translate(454.36 324.79)" font-family="Dosis-ExtraBold" font-size="199.36px" letter-spacing="9">IMPACTASAURUS</text>

</g></g><ellipse class="st7" transform="translate(-77.7 -88.8)" cx="237.7" cy="248.8" rx="158.9" ry="157.4" d="m 396.59999,248.8 c 0,86.92962 -71.14195,157.4 -158.89999,157.4 -87.75805,0 -158.899997,-70.47038 -158.899997,-157.4 0,-86.92961 71.141947,-157.399991 158.899997,-157.399991 87.75804,0 158.89999,70.470381 158.89999,157.399991 z" opacity="0"/><path class="st2" d="m165.7 104.8s-0.8-16.5 17.5-17.5c20.3-1.1 63 19.7 58.6 79.3-4.3 57.6-12 66.4-12 66.4s2 7.9 4 14.4c0.8 2.7 3.6 12.1-3.3 13.6-7.1 1.6-17.3-0.1-25.8 0.4-4.6 0.3-6.3-2.9-6.7-6.7 0 0-2.4-13.6-2.6-13.5-3.1 1.4-16.5 3.4-26 3.1-10.2-0.3-27.4-2.9-27.4-2.9v14c0 2.2-1.7 5.7-5.9 5.9-2.3 0.1-25.9 0.1-27.9 0-4-0.2-5.8-4.2-5.2-9s1.2-6.8 1.2-6.8 10.9-3.2 7.5-21.1c0 0-25.2 31.9-62.8 33.1 0 0 27.2-20.3 36-51.7 7.9-28.1 41.8-39 58.4-38.4s27.3 5.8 41.1 4c5.6-0.7 24.2-3.2 24.6-24.6 0.3-20.6-21.1-24.6-24.6-24.6-5.6 0.2-19.1-3.4-18.7-17.4z" opacity="0"/><circle class="st2" transform="translate(-77.7 -88.8)" cx="257.3" cy="140.2" r="17.2" d="m 274.49999,140.2 c 0,9.4993 -7.7007,17.2 -17.2,17.2 -9.4993,0 -17.2,-7.7007 -17.2,-17.2 0,-9.4993 7.7007,-17.2 17.2,-17.2 9.4993,0 17.2,7.7007 17.2,17.2 z" opacity="0"/><path d="m144.29 316.61c-42.98-4-85.174-27.54-111.14-62.02-20.343-27-30.642-56.28-31.6-89.83-0.79724-27.92 4.3095-51.1 16.58-75.261 24.04-47.331 70.141-79.452 122.89-85.622 23.2-2.7139 47.917-0.20086 69.718 7.0884 24.023 8.0319 43.623 20.239 61.875 38.535 23.833 23.891 37.965 50.977 44.008 84.343 1.84 10.16 2.5073 31.541 1.3243 42.431-9.3689 86.237-86.356 148.45-173.65 140.33zm-4.0331-57.442c1.534-1.7846 1.6453-2.4487 1.6453-9.8115v-7.8973l2.8994 0.41321c19.163 2.7309 33.164 2.983 44.56 0.80239 2.9769-0.56964 5.5894-1.0358 5.8055-1.0358 0.21609-6e-5 0.93951 3.1466 1.6076 6.9926 1.4124 8.1306 2.4658 11.031 4.378 12.055 2.1842 1.1689 27.546 0.97584 30.436-0.2317 4.2916-1.7931 4.3729-6.0849 0.37537-19.808l-2.1698-7.4487 1.3807-3.1134c4.2166-9.5085 7.1945-26.03 9.7961-54.352 1.3422-14.611 1.4209-17.427 0.70571-25.242-0.8722-9.5315-2.4605-16.647-5.3422-23.933-6.9174-17.489-10.447-25.52-27.839-31.528-4.672-1.6138-8.4475-4.1764-14.871-4.1764-6.4425 0-7.9043 4.4144-10.331 5.712-5.818 3.1116-17.514 1.6719-17.514 8.8296 0 9.4578 6.4838 15.403 18.423 16.892 10.311 1.2863 18.964 6.6972 22.638 14.157 1.3452 2.731 1.5776 4.2584 1.5776 10.366 0 6.4522-0.18827 7.5467-1.8964 11.025-6.0352 12.29-19.678 15.937-44.495 11.895-14.731-2.399-19.814-2.734-26.736-1.7618-15.468 2.1724-31.066 9.964-40.406 20.184-4.6255 5.0611-7.6312 10.626-10.973 20.317-5.7765 16.752-13.384 28.372-27.923 42.652l-6.5289 6.4123 4.4344-0.44598c18.23-1.8334 37.937-12.139 53.311-27.878l4.5326-4.6403 0.31235 2.9067c0.78459 7.3014-1.9987 15.005-6.2075 17.182-1.5932 0.82385-2.033 1.598-2.3907 4.2076-0.88308 6.4428-0.58577 8.4228 1.5916 10.6l2.03 2.03 31.536-0.41266 1.6453-1.9141zm46.34-192.1c6.1883-2.8112 9.8375-8.5947 9.8621-15.63 0.0175-5.0156-0.99496-7.7893-4.1586-11.392-6.2687-7.1397-17.572-7.6613-24.31-1.1218-11.328 10.994-3.9472 29.431 11.769 29.399 2.4919-5e-3 5.1668-0.49598 6.8374-1.2548z" fill="#fff" stroke="#fff" stroke-width=".68222"/></svg>
